C:\Users\r0593348\3dpredictsim\Results\Batchsim_tmt_linear\Pog_s1_tmt_aCst_d05_k1000_ig24_act_GRF.mot
nRows=30
nColumns=19

name C:\Users\r0593348\3dpredictsim\Results\Batchsim_tmt_linear\Pog_s1_tmt_aCst_d05_k1000_ig24_act_GRF.mot
datacolumns 19
datarows 30
range 0.0000000000 0.3563605864
endheader
time 	ground_force_vx	ground_force_vy	ground_force_vz	ground_force_px	ground_force_py	ground_force_pz	1_ground_force_vx	1_ground_force_vy	1_ground_force_vz	1_ground_force_px	1_ground_force_py	1_ground_force_pz	ground_torque_x	ground_torque_y	ground_torque_z	1_ground_torque_x	1_ground_torque_y	1_ground_torque_z
        0.0000000000	      -43.6842712111	       33.9884062536	       10.9833120830	        0.1883097585	        0.0000000000	        0.0530143674	      105.2523480040	      437.8264056724	       -1.7895490408	       -0.3586234333	        0.0000000000	       -0.0324773854	        0.0000000000	        0.0000000000	        0.0000000000	        0.0000000000	        0.0000000000	        0.0000000000	
        0.0122882961	     -113.6431906456	      116.6524001613	       42.4630632122	        0.1965529299	        0.0000000000	        0.0510359872	       75.4571984685	      340.8821566096	       -7.0040381771	       -0.3512545768	        0.0000000000	       -0.0295138842	        0.0000000000	        0.0000000000	        0.0000000000	        0.0000000000	        0.0000000000	        0.0000000000	
        0.0245765922	      -53.5927261041	      293.7304771660	       17.9977801367	        0.2021526367	        0.0000000000	        0.0491500797	       44.2660504036	      237.0889558304	      -13.5060345512	       -0.3391220221	        0.0000000000	       -0.0241399271	        0.0000000000	        0.0000000000	        0.0000000000	        0.0000000000	        0.0000000000	        0.0000000000	
        0.0368648882	      -52.4298334583	      495.7137702698	       -5.5070561472	        0.2053943125	        0.0000000000	        0.0489392639	       30.2434520027	      185.7371929450	      -13.1451834511	       -0.3320980449	        0.0000000000	       -0.0204647808	        0.0000000000	        0.0000000000	        0.0000000000	        0.0000000000	        0.0000000000	        0.0000000000	
        0.0491531843	      -98.3095406535	      712.2367713790	      -15.9996040226	        0.2144313429	        0.0000000000	        0.0508686898	       28.3075271610	      145.5037650844	      -12.8685305161	       -0.3316587828	        0.0000000000	       -0.0205424482	        0.0000000000	        0.0000000000	        0.0000000000	        0.0000000000	        0.0000000000	        0.0000000000	
        0.0614414804	     -132.2909257918	      857.0406912702	      -20.8202827030	        0.2226376337	        0.0000000000	        0.0526777058	       18.7318602762	       94.1575218909	      -14.5933373190	       -0.3313753051	        0.0000000000	       -0.0209321864	        0.0000000000	        0.0000000000	        0.0000000000	        0.0000000000	        0.0000000000	        0.0000000000	
        0.0737297765	     -140.3034497084	      889.8239883891	      -21.3339075970	        0.2279541569	        0.0000000000	        0.0537093295	        1.6530241570	       35.9669169872	       -8.5816517539	       -0.3321156608	        0.0000000000	       -0.0211431610	        0.0000000000	        0.0000000000	        0.0000000000	        0.0000000000	        0.0000000000	        0.0000000000	
        0.0860180726	     -129.0094122086	      866.0671360523	      -21.1537339663	        0.2319274579	        0.0000000000	        0.0542791426	        0.4924117063	       -0.4837459348	        0.0169134307	        0.0000000000	        0.0000000000	        0.0000000000	        0.0000000000	        0.0000000000	        0.0000000000	        0.0000000000	        0.0000000000	        0.0000000000	
        0.0983063687	     -113.7378306863	      819.7038703132	      -20.7294909847	        0.2358825746	        0.0000000000	        0.0545131205	        0.3527588591	       -0.2723033644	       -0.0203757876	        0.0000000000	        0.0000000000	        0.0000000000	        0.0000000000	        0.0000000000	        0.0000000000	        0.0000000000	        0.0000000000	        0.0000000000	
        0.1105946647	     -100.5372981510	      774.2332347598	      -19.4526384084	        0.2401450485	        0.0000000000	        0.0544734747	       -3.3849832618	        2.2525305974	        0.2616685077	        0.0000000000	        0.0000000000	        0.0000000000	        0.0000000000	        0.0000000000	        0.0000000000	        0.0000000000	        0.0000000000	        0.0000000000	
        0.1228829608	      -90.2072874934	      741.4450522095	      -18.9542253337	        0.2453087984	        0.0000000000	        0.0541770647	       -3.0825631265	        1.8363960876	        0.2505476913	        0.0000000000	        0.0000000000	        0.0000000000	        0.0000000000	        0.0000000000	        0.0000000000	        0.0000000000	        0.0000000000	        0.0000000000	
        0.1351712569	      -81.0613518210	      716.4184130699	      -19.1117539930	        0.2511379098	        0.0000000000	        0.0536407836	       -2.4177259688	        1.3262677552	        0.2069041111	        0.0000000000	        0.0000000000	        0.0000000000	        0.0000000000	        0.0000000000	        0.0000000000	        0.0000000000	        0.0000000000	        0.0000000000	
        0.1474595530	      -71.4380285215	      691.1093625644	      -19.4559801065	        0.2567625578	        0.0000000000	        0.0531463469	       -1.8745241694	        0.9740376565	        0.1536294368	        0.0000000000	        0.0000000000	        0.0000000000	        0.0000000000	        0.0000000000	        0.0000000000	        0.0000000000	        0.0000000000	        0.0000000000	
        0.1597478491	      -62.2518467123	      666.2684387721	      -20.1565663414	        0.2620748628	        0.0000000000	        0.0527515392	       -1.3213896501	        0.6572922553	        0.1065937557	        0.0000000000	        0.0000000000	        0.0000000000	        0.0000000000	        0.0000000000	        0.0000000000	        0.0000000000	        0.0000000000	        0.0000000000	
        0.1720361452	      -53.8623672027	      644.8522639916	      -20.3810387844	        0.2672193264	        0.0000000000	        0.0524364848	       -0.9563429784	        0.4593691560	        0.0759542972	        0.0000000000	        0.0000000000	        0.0000000000	        0.0000000000	        0.0000000000	        0.0000000000	        0.0000000000	        0.0000000000	        0.0000000000	
        0.1843244412	      -46.2663647150	      627.4725417149	      -20.7214833881	        0.2725482921	        0.0000000000	        0.0521267251	       -0.7504783901	        0.3503096122	        0.0588125558	        0.0000000000	        0.0000000000	        0.0000000000	        0.0000000000	        0.0000000000	        0.0000000000	        0.0000000000	        0.0000000000	        0.0000000000	
        0.1966127373	      -39.7013054468	      614.4972930373	      -21.0172659669	        0.2785267311	        0.0000000000	        0.0517340185	       -0.6428014492	        0.2928382284	        0.0495977946	        0.0000000000	        0.0000000000	        0.0000000000	        0.0000000000	        0.0000000000	        0.0000000000	        0.0000000000	        0.0000000000	        0.0000000000	
        0.2089010334	      -34.7645497992	      605.4801616291	      -21.0016615802	        0.2852013133	        0.0000000000	        0.0512149246	       -0.5960542130	        0.2657809832	        0.0452672317	        0.0000000000	        0.0000000000	        0.0000000000	        0.0000000000	        0.0000000000	        0.0000000000	        0.0000000000	        0.0000000000	        0.0000000000	
        0.2211893295	      -30.8954197686	      599.5948765446	      -20.4796095476	        0.2922057302	        0.0000000000	        0.0505989056	       -0.5960803718	        0.2605412351	        0.0443808341	        0.0000000000	        0.0000000000	        0.0000000000	        0.0000000000	        0.0000000000	        0.0000000000	        0.0000000000	        0.0000000000	        0.0000000000	
        0.2334776256	      -27.5879437316	      596.0172101317	      -19.4280474967	        0.2993623098	        0.0000000000	        0.0499086251	       -0.6415590374	        0.2750436530	        0.0462957525	        0.0000000000	        0.0000000000	        0.0000000000	        0.0000000000	        0.0000000000	        0.0000000000	        0.0000000000	        0.0000000000	        0.0000000000	
        0.2457659217	      -24.7907033383	      593.5758090400	      -18.2226165692	        0.3064802855	        0.0000000000	        0.0491701443	       -0.7294368745	        0.3070777961	        0.0503234413	        0.0000000000	        0.0000000000	        0.0000000000	        0.0000000000	        0.0000000000	        0.0000000000	        0.0000000000	        0.0000000000	        0.0000000000	
        0.2580542177	      -22.0809001959	      591.0013930434	      -17.7375592558	        0.3133853287	        0.0000000000	        0.0484136386	       -0.8543359693	        0.3536902648	        0.0559346558	        0.0000000000	        0.0000000000	        0.0000000000	        0.0000000000	        0.0000000000	        0.0000000000	        0.0000000000	        0.0000000000	        0.0000000000	
        0.2703425138	      -19.2687000538	      587.5501282153	      -17.6080487288	        0.3200985237	        0.0000000000	        0.0476509057	       -1.0072704483	        0.4107613169	        0.0626458557	        0.0000000000	        0.0000000000	        0.0000000000	        0.0000000000	        0.0000000000	        0.0000000000	        0.0000000000	        0.0000000000	        0.0000000000	
        0.2826308099	      -16.4648604252	      582.9177036333	      -17.6599820274	        0.3266080823	        0.0000000000	        0.0468892411	       -1.1733846602	        0.4721607277	        0.0695522789	        0.0000000000	        0.0000000000	        0.0000000000	        0.0000000000	        0.0000000000	        0.0000000000	        0.0000000000	        0.0000000000	        0.0000000000	
        0.2949191060	      -13.4901560155	      577.6510241519	      -17.6705015979	        0.3329520018	        0.0000000000	        0.0461269997	       -1.3319538939	        0.5298595310	        0.0755418169	        0.0000000000	        0.0000000000	        0.0000000000	        0.0000000000	        0.0000000000	        0.0000000000	        0.0000000000	        0.0000000000	        0.0000000000	
        0.3072074021	      -10.2051871507	      571.7071996781	      -17.5191181873	        0.3391306213	        0.0000000000	        0.0453638566	       -1.4711487011	        0.5794768145	        0.0796651604	        0.0000000000	        0.0000000000	        0.0000000000	        0.0000000000	        0.0000000000	        0.0000000000	        0.0000000000	        0.0000000000	        0.0000000000	
        0.3194956982	       -6.6720360977	      565.0401278944	      -16.9067233904	        0.3451501465	        0.0000000000	        0.0445979702	       -1.6054164589	        0.6266414314	        0.0818275253	        0.0000000000	        0.0000000000	        0.0000000000	        0.0000000000	        0.0000000000	        0.0000000000	        0.0000000000	        0.0000000000	        0.0000000000	
        0.3317839942	       -3.2244761437	      560.0379311652	      -15.6382300694	        0.3511154820	        0.0000000000	        0.0438037532	       -1.7582652753	        0.6804280168	        0.0822007910	        0.0000000000	        0.0000000000	        0.0000000000	        0.0000000000	        0.0000000000	        0.0000000000	        0.0000000000	        0.0000000000	        0.0000000000	
        0.3440722903	       -0.0244493690	      557.7101258945	      -14.0745959571	        0.3568971641	        0.0000000000	        0.0429939642	       -1.9098196729	        0.7335540243	        0.0780912898	        0.0000000000	        0.0000000000	        0.0000000000	        0.0000000000	        0.0000000000	        0.0000000000	        0.0000000000	        0.0000000000	        0.0000000000	
        0.3563605864	        3.1499121199	      558.6829922250	      -12.7297480368	        0.3623232760	        0.0000000000	        0.0421906126	       -2.0019934370	        0.7644262900	        0.0670153449	        0.0000000000	        0.0000000000	        0.0000000000	        0.0000000000	        0.0000000000	        0.0000000000	        0.0000000000	        0.0000000000	        0.0000000000	
